<svg viewBox="0 0 310 310" xmlns="http://www.w3.org/2000/svg"><g fill-rule="evenodd"><path d="m75.31 301.92h.15l104.54-.22a68.54 68.54 0 0 0 60-35.77 68.73 68.73 0 0 0 27.44-27.43 68.57 68.57 0 0 0 -32.76-128.79h-.15l-35.79.08v-33.15a68.56 68.56 0 0 0 -128.74-32.78 68.87 68.87 0 0 0 -27.47 27.44 68.53 68.53 0 0 0 -35.77 60.22v101.84a68.52 68.52 0 0 0 68.55 68.56" fill="#773cbc"/><path d="m75.31 301.92a68.52 68.52 0 0 1 -68.55-68.56v-101.84a68.56 68.56 0 1 1 137.11 0v33.14l35.79-.07h.15a68.56 68.56 0 0 1 .19 137.11l-104.49.22z" fill="#fff"/><path d="m102.75 274.48a68.52 68.52 0 0 1 -68.55-68.56v-101.84a68.56 68.56 0 1 1 137.11 0v33.14l35.79-.07h.15a68.56 68.56 0 0 1 .14 137.11l-104.49.22z" fill="#fe509c" opacity=".5"/><path d="m130.19 247a68.56 68.56 0 0 1 -68.56-68.56v-101.8a68.56 68.56 0 1 1 137.11 0v33.15l35.81-.08h.14a68.56 68.56 0 0 1 .14 137.11l-104.5.22z" fill="#ff005e" opacity=".5"/></g></svg>